<svg xmlns="http://www.w3.org/2000/svg" viewBox="0 0 455.95 454.16"><defs><style>.a{fill:#e0234e;fill-rule:evenodd}</style></defs><title>nestjs-icon</title><path d="M268.47,0a28.88,28.88,0,0,0-9.18,1.65A25.94,25.94,0,0,1,270.24,17c.11.82.35,1.41.47,2.23a12.84,12.84,0,0,1,.23,2.12c.47,10.36-2.71,11.66-4.94,17.78a25.13,25.13,0,0,0,1.65,23.2,13.78,13.78,0,0,0,1.41,2.59c-4.48-29.79,20.37-34.26,25-43.57.35-8.12-6.36-13.54-11.66-17.31a26,26,0,0,0-13.89-4Zm37.44,6.71a13.74,13.74,0,0,0-.23,3.42c-.12.94-.12,2.12-.24,3.06a25,25,0,0,1-.82,2.82,27.58,27.58,0,0,1-.94,2.83c-.47.94-.83,1.77-1.3,2.71-.35.47-.59.94-.94,1.41L300.73,24c-.59.83-1.17,1.65-1.76,2.36a19.29,19.29,0,0,1-2.12,2.12v.11c-.71.59-1.42,1.3-2.24,1.89-2.47,1.88-5.3,3.29-7.89,5.06a17.2,17.2,0,0,0-2.35,1.77,16.89,16.89,0,0,0-2.24,1.88A18.72,18.72,0,0,0,280,41.45a17.2,17.2,0,0,0-1.77,2.35c-.59.83-1.17,1.65-1.65,2.48S275.77,48,275.3,49a24.93,24.93,0,0,0-.94,2.71c-.36,1.06-.59,2-.83,3-.11.47-.11,1.06-.23,1.53s-.12.94-.24,1.41c0,.94-.12,2-.12,2.94a12.51,12.51,0,0,0,.12,2.12,13.12,13.12,0,0,0,.36,3,23.53,23.53,0,0,0,.58,2.82c.36,1,.59,1.89.95,2.83.23.59.59,1.18.82,1.65L248.69,62.41c-4.59-1.3-9.07-2.47-13.66-3.53l-7.42-1.77c-7.06-1.41-14.25-2.47-21.43-3.18-.23,0-.35-.12-.59-.12-7.06-.7-14-1.06-21.08-1.06-5.18,0-10.36.24-15.42.59-7.18.47-14.37,1.41-21.55,2.59-1.77.24-3.53.59-5.3.94-3.65.71-7.18,1.53-10.6,2.36l-5.29,1.41c-1.77.71-3.42,1.53-5.07,2.24l-3.88,1.76c-.24.12-.47.12-.59.24-1.18.59-2.24,1.06-3.3,1.65a5.59,5.59,0,0,0-.82.35c-1.3.59-2.59,1.3-3.65,1.89-.83.35-1.65.82-2.36,1.17a9.48,9.48,0,0,1-1.06.59c-1.06.59-2.12,1.18-3.06,1.77a32.72,32.72,0,0,0-2.83,1.76c-.82.59-1.64,1.06-2.35,1.65-.12.12-.24.12-.35.24a26.71,26.71,0,0,0-2.24,1.65l-.24.23-1.76,1.42c-.24.11-.47.35-.71.47-.59.47-1.18,1.06-1.77,1.53-.11.23-.35.35-.47.47-.7.71-1.41,1.29-2.12,2-.11,0-.11.12-.23.24-.71.58-1.41,1.29-2.12,2-.12.12-.12.23-.24.23-.59.59-1.17,1.18-1.76,1.89-.24.23-.59.47-.83.7-.59.71-1.29,1.42-2,2.12-.12.24-.35.36-.47.59-.94.94-1.77,1.89-2.71,2.83l-.35.35a71.21,71.21,0,0,1-6,5.77,67.1,67.1,0,0,1-6.59,5.18c-2.36,1.65-4.59,3.06-7.07,4.48a72.29,72.29,0,0,1-7.41,3.53c-2.48,1.06-5.07,2-7.66,2.82-4.94,1.06-10,3.07-14.36,3.42a24.71,24.71,0,0,0-2.95.35c-1.06.24-2,.47-2.94.71L19.19,122a29.39,29.39,0,0,0-2.82,1.29c-.83.59-1.77,1.06-2.59,1.65a19.78,19.78,0,0,0-2.36,2,20.63,20.63,0,0,0-2.35,2.12c-.71.83-1.42,1.53-2,2.36s-1.3,1.77-1.77,2.71a19.76,19.76,0,0,0-1.65,2.71c-.47,1.06-.94,2-1.3,3.06s-.7,2-1,3.06a21.77,21.77,0,0,0-.59,2.82c0,.12-.12.24-.12.36-.24,1.06-.24,2.47-.35,3.18A15.6,15.6,0,0,0,0,151.66a6.58,6.58,0,0,0,.12,1.53,12.3,12.3,0,0,0,.47,2.24,15.41,15.41,0,0,0,.82,2.12v.12a23.29,23.29,0,0,0,1.3,2.12,24.92,24.92,0,0,0,1.53,2.12c.59.59,1.29,1.29,2,1.88a16.16,16.16,0,0,0,2.24,1.88c2.82,2.48,3.53,3.3,7.18,5.19.59.35,1.18.58,1.89.94.11,0,.23.12.35.12a1,1,0,0,0,.12.58,21.57,21.57,0,0,0,.59,2.83,15.14,15.14,0,0,0,.94,2.83c.35.7.59,1.41.94,2.12a2.45,2.45,0,0,0,.35.58c.47.95.94,1.77,1.42,2.59s1.17,1.65,1.76,2.48,1.3,1.53,2,2.23,1.42,1.3,2.24,2a.43.43,0,0,0,.24.11,23.87,23.87,0,0,0,2.12,1.65,17.83,17.83,0,0,0,2.59,1.53,17.72,17.72,0,0,0,2.7,1.3,13.64,13.64,0,0,0,2.36.82c.12.12.23.12.47.24.47.12,1.06.23,1.53.35-.35,6.36-.47,12.37.47,14.49C41.8,213,47,205.83,52.16,197.59c-.7,8.12-1.17,17.66,0,20.48s8.36-6.24,14.49-16.36c83.48-19.31,159.67,38.38,167.67,119.87-1.53-12.72-17.19-19.79-24.37-18-3.53,8.71-9.54,19.9-19.19,26.85a75.59,75.59,0,0,0-1.18-23.55A76.23,76.23,0,0,1,175,336.53c-11.19.82-22.37-4.59-28.26-12.72-.47-.35-.59-1.06-.94-1.53a20.86,20.86,0,0,1-.95-2.47,9.55,9.55,0,0,1-.7-2.47,17.94,17.94,0,0,1-.12-2.59V313a18.44,18.44,0,0,1,.59-2.47,20,20,0,0,1,.82-2.48,27.33,27.33,0,0,1,1.42-2.47c2-5.65,2-10.24-1.65-12.95a14.4,14.4,0,0,0-2.24-1.18c-.47-.12-1.06-.35-1.53-.47s-.59-.23-.94-.35A18.58,18.58,0,0,0,138,290a8.72,8.72,0,0,0-2.47-.35,18.9,18.9,0,0,0-2.59-.24c-.59,0-1.18.12-1.77.12a9.42,9.42,0,0,0-2.59.35,18.82,18.82,0,0,0-4.94,1.3c-.83.35-1.53.7-2.36,1.06s-1.41.82-2.23,1.17c-27.44,17.9-11.07,59.82,7.65,71.95-7.07,1.29-14.25,2.83-16.25,4.36l-.24.23a112,112,0,0,0,15.9,7.89c7.54,2.47,15.54,4.71,19.08,5.65v.12a113.9,113.9,0,0,0,29.67,2.12c52.16-3.65,94.91-43.33,102.68-95.61.23,1.06.47,2,.7,3.06.36,2.12.83,4.36,1.06,6.59v.12c.24,1.06.36,2.12.48,3.06v.47c.11,1.06.23,2.12.23,3.06.12,1.3.24,2.6.24,3.89v1.88c0,.59.11,1.3.11,1.89s-.11,1.41-.11,2.12v1.65c0,.82-.12,1.53-.12,2.35a7.11,7.11,0,0,1-.12,1.53c0,.83-.12,1.65-.12,2.59a3.23,3.23,0,0,0-.12,1.06c-.11.94-.23,1.77-.35,2.71a3.2,3.2,0,0,1-.12,1.06c-.12,1.18-.35,2.24-.47,3.42v.23c-.23,1.06-.47,2.24-.7,3.3v.35c-.24,1.06-.48,2.12-.71,3.18,0,.12-.12.35-.12.47a31,31,0,0,1-.82,3.18v.35c-.36,1.18-.71,2.24-1,3.3a.39.39,0,0,0-.11.24c-.36,1.17-.71,2.35-1.06,3.53s-.83,2.24-1.3,3.41-.82,2.36-1.29,3.42-.95,2.24-1.42,3.41h-.11c-.48,1.06-.95,2.24-1.54,3.3a4.68,4.68,0,0,1-.35.82c-.12.12-.12.24-.23.36A111.58,111.58,0,0,1,235,405.06c-.94.59-1.89,1.3-2.83,2-.23.24-.59.36-.82.59-.83.59-1.65,1.18-2.59,1.77l.35.71h.12l4.94-.71h.12c3.06-.47,6.13-1.06,9.19-1.65a20.51,20.51,0,0,0,2.59-.59l1.65-.35c.82-.12,1.64-.35,2.47-.47s1.41-.36,2.12-.59a223.3,223.3,0,0,0,34.15-11.31,188.57,188.57,0,0,1-73.13,59.7,194.2,194.2,0,0,0,40.16-6.94,188.18,188.18,0,0,0,111.27-88.9A187.91,187.91,0,0,1,333.11,434a185.06,185.06,0,0,0,81-126.23,187.51,187.51,0,0,1,3.41,56.76C502.56,246,424.61,123.05,392,90.67c-.12-.24-.24-.35-.24-.59-.11.12-.11.12-.11.24,0-.12,0-.12-.12-.24,0,1.41-.12,2.83-.24,4.24-.35,2.71-.7,5.3-1.17,7.89s-1.3,5.18-2,7.77-1.76,5.06-2.82,7.54-2.24,4.82-3.53,7.18-2.71,4.59-4.24,6.71-3.18,4.36-4.83,6.36-3.65,4-5.54,5.89c-1.17,1.06-2.23,2-3.41,2.94-.94.82-1.77,1.53-2.71,2.36a69,69,0,0,1-6.59,4.59c-2.24,1.41-4.59,2.82-6.95,4s-5,2.24-7.42,3.3-5.06,1.76-7.65,2.47-5.3,1.3-7.89,1.77-5.42.7-8,.94c-1.88.12-3.77.23-5.65.23-2.71,0-5.42-.23-8-.47A77.88,77.88,0,0,1,287,162.61h-.12c2.59-.23,5.18-.47,7.77-.94s5.3-1.06,7.89-1.76,5.18-1.54,7.65-2.48a71.45,71.45,0,0,0,7.42-3.29c2.47-1.18,4.71-2.48,7.07-3.89s4.47-3.06,6.59-4.71a64.5,64.5,0,0,0,6-5.3,65.53,65.53,0,0,0,5.53-5.77c1.77-2.12,3.41-4.24,5-6.36.23-.35.47-.82.7-1.17,1.18-1.89,2.36-3.77,3.42-5.66,1.29-2.35,2.47-4.71,3.53-7.18s2-4.94,2.83-7.54,1.41-5.06,2-7.65.94-5.3,1.17-7.89.48-5.41.48-8c0-1.88-.12-3.76-.24-5.65-.24-2.71-.59-5.3-.94-7.89s-1.06-5.3-1.77-7.89-1.65-5.06-2.59-7.53a79.84,79.84,0,0,0-3.3-7.3c-1.29-2.36-2.59-4.71-4-7s-3.06-4.36-4.71-6.48-3.53-4-5.42-6c-.94-.94-2-2-3.06-2.94-5.3-4.13-10.83-8-16.36-11.54a20.77,20.77,0,0,0-2.36-1.18,46.21,46.21,0,0,0-11.19-4.95Z" class="a"/></svg>