<svg xmlns="http://www.w3.org/2000/svg" width="735" height="780" fill="none" viewBox="0 0 735 780"><g clip-path="url(#clip0_105_37)"><path fill="#3F3D56" d="M734.736 172.947H730.737V63.4019C730.737 55.0759 729.098 46.8313 725.911 39.1391C722.725 31.4468 718.055 24.4574 712.168 18.57C706.28 12.6826 699.291 8.01245 691.599 4.8262C683.906 1.63995 675.662 6.56627e-06 667.336 1.77451e-10H435.249C426.923 -1.96981e-05 418.678 1.6399 410.986 4.82612C403.294 8.01235 396.304 12.6825 390.417 18.5699C384.53 24.4573 379.859 31.4466 376.673 39.1389C373.487 46.8312 371.847 55.0757 371.847 63.4017V664.376C371.847 681.191 378.527 697.318 390.417 709.208C402.307 721.098 418.434 727.778 435.249 727.778H667.335C684.151 727.778 700.277 721.098 712.167 709.208C724.057 697.318 730.737 681.192 730.737 664.376V250.923H734.736L734.736 172.947Z"/><path fill="#fff" d="M669.894 16.495H639.599C640.992 19.9106 641.524 23.6165 641.147 27.286C640.771 30.9556 639.498 34.4763 637.44 37.538C635.383 40.5997 632.604 43.1084 629.348 44.8431C626.093 46.5778 622.46 47.4852 618.772 47.4855H485.812C482.123 47.4852 478.491 46.5778 475.236 44.8431C471.98 43.1084 469.201 40.5997 467.143 37.538C465.086 34.4763 463.813 30.9556 463.436 27.286C463.06 23.6164 463.592 19.9106 464.985 16.4949H436.689C424.132 16.4949 412.089 21.4833 403.209 30.3627C394.33 39.2422 389.342 51.2853 389.342 63.8427V663.935C389.342 676.493 394.33 688.536 403.209 697.415C412.089 706.295 424.132 711.283 436.689 711.283H669.894C676.112 711.283 682.268 710.058 688.013 707.679C693.757 705.3 698.977 701.812 703.374 697.415C707.77 693.019 711.258 687.799 713.637 682.055C716.017 676.31 717.242 670.153 717.242 663.935V63.8427C717.242 57.6249 716.017 51.468 713.637 45.7235C711.258 39.979 707.77 34.7594 703.374 30.3628C698.977 25.9661 693.757 22.4785 688.013 20.0991C682.268 17.7196 676.112 16.495 669.894 16.495Z"/><path fill="#E6E6E6" d="M565.531 668.779C544.923 668.789 524.938 661.715 508.926 648.743C492.913 635.771 481.845 617.69 477.578 597.529C473.31 577.368 476.102 556.353 485.485 538.006C494.868 519.658 510.272 505.093 529.116 496.752C547.96 488.41 569.099 486.8 588.989 492.189C608.88 497.579 626.313 509.641 638.368 526.355C650.423 543.069 656.367 563.418 655.204 583.993C654.04 604.567 645.841 624.117 631.979 639.366L650.744 660.401L641.38 664.373C626.893 670.518 612.717 664.539 604.761 659.767C592.532 665.695 579.12 668.776 565.531 668.779ZM565.531 503.831C554.071 503.835 542.763 506.458 532.472 511.501C522.181 516.543 513.179 523.872 506.153 532.926C499.128 541.98 494.266 552.521 491.937 563.742C489.609 574.963 489.877 586.568 492.72 597.669C495.564 608.771 500.907 619.076 508.343 627.797C515.778 636.517 525.109 643.422 535.622 647.985C546.134 652.547 557.551 654.646 568.999 654.121C580.447 653.596 591.624 650.461 601.675 644.955L605.683 642.752L609.411 645.404C613.67 648.502 618.507 650.715 623.635 651.912L611.827 638.676L617.003 633.811C624.521 626.808 630.51 618.324 634.59 608.894C638.671 599.464 640.757 589.291 640.715 579.016C640.693 559.083 632.764 539.972 618.669 525.877C604.574 511.782 585.464 503.854 565.531 503.831Z"/><path fill="#fff" d="M648.005 579.016C647.997 560.947 642.055 543.382 631.09 529.021C620.126 514.659 604.748 504.298 587.32 499.529C569.892 494.761 551.381 495.85 534.632 502.629C517.884 509.408 503.826 521.502 494.622 537.049C485.417 552.597 481.575 570.739 483.687 588.683C485.799 606.627 493.747 623.381 506.309 636.368C518.872 649.354 535.352 657.854 553.217 660.56C571.081 663.266 589.34 660.028 605.185 651.344C610.886 655.4 624.794 663.491 638.533 657.663L621.995 639.124C630.216 631.421 636.767 622.11 641.241 611.771C645.715 601.431 648.018 590.282 648.005 579.016V579.016Z"/><path fill="#319795" d="M581.986 562.153H523.054V567.625H581.986V562.153Z"/><path fill="#E6E6E6" d="M625.768 581.085H523.054V586.557H625.768V581.085Z"/><path fill="#E6E6E6" d="M625.667 600.016H523.054V605.489H625.667V600.016Z"/><path fill="#E6E6E6" d="M565.531 269.779C544.923 269.789 524.939 262.715 508.926 249.743C492.913 236.771 481.846 218.69 477.578 198.529C473.31 178.368 476.102 157.353 485.485 139.006C494.868 120.658 510.273 106.093 529.117 97.7518C547.961 89.4105 569.099 87.7996 588.989 93.1891C608.88 98.5787 626.313 110.641 638.368 127.355C650.423 144.069 656.367 164.418 655.204 184.993C654.041 205.567 645.841 225.117 631.979 240.366L650.744 261.401L641.38 265.373C626.893 271.518 612.717 265.539 604.761 260.767C592.532 266.695 579.12 269.776 565.531 269.779ZM565.531 104.831C554.071 104.835 542.763 107.458 532.472 112.501C522.181 117.543 513.179 124.872 506.153 133.926C499.128 142.98 494.266 153.521 491.937 164.742C489.609 175.963 489.877 187.568 492.72 198.669C495.564 209.771 500.907 220.076 508.343 228.797C515.778 237.517 525.109 244.422 535.622 248.985C546.135 253.547 557.551 255.646 568.999 255.121C580.447 254.596 591.624 251.461 601.675 245.955L605.684 243.752L609.411 246.404C613.67 249.502 618.507 251.715 623.635 252.912L611.827 239.676L617.003 234.811C624.522 227.808 630.51 219.324 634.591 209.894C638.671 200.464 640.757 190.291 640.715 180.016C640.693 160.082 632.764 140.972 618.669 126.877C604.574 112.782 585.464 104.854 565.531 104.831V104.831Z"/><path fill="#fff" d="M648.005 180.016C647.998 161.947 642.055 144.382 631.091 130.021C620.126 115.659 604.748 105.298 587.32 100.529C569.892 95.761 551.381 96.8501 534.632 103.629C517.884 110.408 503.826 122.502 494.622 138.049C485.417 153.597 481.575 171.739 483.687 189.683C485.799 207.627 493.747 224.381 506.309 237.368C518.872 250.354 535.353 258.854 553.217 261.56C571.082 264.266 589.34 261.028 605.185 252.344C610.886 256.4 624.794 264.491 638.533 258.663L621.995 240.124C630.216 232.421 636.767 223.11 641.241 212.771C645.716 202.431 648.018 191.282 648.005 180.016V180.016Z"/><path fill="#319795" d="M581.986 163.153H523.054V168.625H581.986V163.153Z"/><path fill="#E6E6E6" d="M625.768 182.085H523.054V187.557H625.768V182.085Z"/><path fill="#E6E6E6" d="M625.667 201.016H523.054V206.489H625.667V201.016Z"/><path fill="#E6E6E6" d="M679.768 277.446C686.947 277.446 692.768 271.626 692.768 264.446C692.768 257.267 686.947 251.446 679.768 251.446C672.588 251.446 666.768 257.267 666.768 264.446C666.768 271.626 672.588 277.446 679.768 277.446Z"/><path fill="#E6E6E6" d="M679.768 676.446C686.947 676.446 692.768 670.626 692.768 663.446C692.768 656.267 686.947 650.446 679.768 650.446C672.588 650.446 666.768 656.267 666.768 663.446C666.768 670.626 672.588 676.446 679.768 676.446Z"/><path fill="#319795" d="M392.673 476.008C383.16 481.714 366.21 488.863 348.889 481.516L337.693 476.766L360.13 451.615C342.225 431.873 332.32 406.168 332.347 379.517C332.374 352.865 342.332 327.181 360.277 307.476C378.222 287.771 402.866 275.461 429.399 272.947C455.931 270.434 482.448 277.898 503.774 293.883C525.099 309.868 539.703 333.227 544.734 359.399C549.765 385.571 544.862 412.679 530.983 435.431C517.103 458.183 495.243 474.946 469.67 482.449C444.096 489.952 416.645 487.655 392.673 476.008H392.673Z"/><path fill="#000" d="M529.967 378.959C529.965 354.315 520.737 330.565 504.099 312.385C487.461 294.206 464.619 282.915 440.072 280.736C442.944 280.484 445.85 280.348 448.787 280.348C474.93 280.365 499.995 290.761 518.475 309.253C536.954 327.744 547.335 352.816 547.335 378.959C547.335 405.101 536.954 430.173 518.475 448.665C499.995 467.156 474.93 477.552 448.787 477.569C445.854 477.569 442.954 477.431 440.086 477.18C464.63 474.998 487.468 463.705 504.103 445.527C520.739 427.348 529.965 403.6 529.967 378.959V378.959Z" opacity=".1"/><path fill="#fff" d="M453.419 359.294H382.957V365.838H453.419V359.294Z"/><path fill="#fff" d="M505.767 381.93H382.957V388.474H505.767V381.93Z"/><path fill="#fff" d="M505.647 404.566H382.957V411.11H505.647V404.566Z"/><path fill="#CCC" d="M1 779.785H382C382.265 779.785 382.52 779.679 382.707 779.492C382.895 779.304 383 779.05 383 778.785C383 778.52 382.895 778.265 382.707 778.078C382.52 777.89 382.265 777.785 382 777.785H1C0.734784 777.785 0.480429 777.89 0.292892 778.078C0.105356 778.265 0 778.52 0 778.785C0 779.05 0.105356 779.304 0.292892 779.492C0.480429 779.679 0.734784 779.785 1 779.785V779.785Z"/><path fill="#E6E6E6" d="M183.785 349.52L185.291 341.99C185.291 341.99 207.44 334.461 209.919 349.52H183.785Z"/><path fill="#9F616A" d="M226.294 764.098L240.815 764.097L247.723 708.088L226.291 708.089L226.294 764.098Z"/><path fill="#2F2E41" d="M222.59 759.357L251.187 759.356H251.188C256.021 759.356 260.656 761.276 264.074 764.694C267.492 768.111 269.412 772.746 269.412 777.58V778.172L222.591 778.174L222.59 759.357Z"/><path fill="#9F616A" d="M156.294 764.098L170.815 764.097L177.723 708.088L156.291 708.089L156.294 764.098Z"/><path fill="#2F2E41" d="M152.59 759.357L181.187 759.356H181.188C186.021 759.356 190.656 761.276 194.074 764.694C197.492 768.111 199.412 772.746 199.412 777.58V778.172L152.591 778.174L152.59 759.357Z"/><path fill="#2F2E41" d="M162.703 381.143L146.138 379.637L135.597 429.331L137.103 474.507L153.668 534.742L176.256 521.189L164.209 459.448L162.703 381.143Z"/><path fill="#2F2E41" d="M152.218 529.471L155.926 561.094L159.409 634.882L151.409 744.84L180.02 743.305L194.044 628.859L202.608 576.153L214.655 636.388L222.185 749.328L251.549 746.975V635.991L252.302 555.071L241.761 523.448L152.218 529.471Z"/><path fill="#2F2E41" d="M213.902 351.026C213.902 351.026 203.361 335.967 183.785 346.508L174.75 358.555L146.138 379.637L152.162 450.413L144.632 539.259L251.549 537.754L233.479 448.907V354.037L213.902 351.026Z"/><path fill="#000" d="M155.926 404.632L147.292 507.871L158.185 451.919L155.926 404.632Z" opacity=".25"/><path fill="#9F616A" d="M335.652 491.192C334.114 491.714 332.481 491.893 330.867 491.716C329.253 491.539 327.698 491.01 326.31 490.166C324.923 489.323 323.737 488.186 322.837 486.834C321.936 485.483 321.343 483.951 321.099 482.346L296.46 476.257L296.509 460.381L331.183 469.469C333.907 469.238 336.621 470.013 338.811 471.649C341.001 473.285 342.515 475.668 343.066 478.345C343.617 481.023 343.166 483.81 341.8 486.177C340.433 488.545 338.246 490.329 335.652 491.192Z"/><path fill="#E6E6E6" d="M309.887 460.191L305.744 483.927L316.128 485.739L320.271 462.004L309.887 460.191Z"/><path fill="#9F616A" d="M211.648 329.926C226.303 321.915 231.688 303.542 223.677 288.888C215.667 274.234 197.294 268.848 182.639 276.859C167.985 284.87 162.6 303.243 170.61 317.897C178.621 332.551 196.994 337.937 211.648 329.926Z"/><path fill="#2F2E41" d="M199.403 330.067C192.005 331.843 184.211 330.807 177.534 327.158C170.857 323.51 165.775 317.51 163.274 310.325C160.773 303.139 161.031 295.281 163.999 288.275C166.967 281.27 172.433 275.617 179.335 272.416C184.65 270.043 190.463 269 196.271 269.376C205.315 269.852 214.105 273.194 223.157 272.948L224.47 275.057L229.415 273.858L230.474 277.784L231.777 277.739C234.11 282.075 230.356 288.283 225.432 288.23C223.483 288.21 221.64 287.397 219.734 286.989C217.828 286.58 215.583 286.682 214.268 288.122C212.56 289.993 213.304 292.913 213.66 295.421C214.016 297.929 213.126 301.308 210.594 301.39C209.301 301.432 208.071 300.504 206.8 300.748C205.319 301.032 204.571 302.82 204.787 304.311C205.153 305.775 205.751 307.171 206.558 308.446C210.229 315.774 207.129 325.741 199.951 329.695"/><path fill="#2F2E41" d="M226.291 359.856L233.478 354.037C233.478 354.037 247.984 353.029 247.722 368.407L270.933 441.011L315.46 456.785L309.46 487.785L246.46 463.785L214.46 410.745L226.291 359.856Z"/></g><defs><clipPath id="clip0_105_37"><rect width="734.736" height="779.785" fill="#fff"/></clipPath></defs></svg>